Results
version=1
nRows=25
nColumns=21
inDegrees=yes
endheader
time	Thorax_pitch	Thorax_roll	Thorax_yaw	Thorax_Tx	Thorax_Ty	Thorax_Tz	L_shoulder_flex-ext	L_shoulder_adb-add	L_shoulder_LAR	L_elbow_flex-ext	L_forearm_pron-sup	L_wrist_flex-ext	L_MCP_flex-ext	R_shoulder_flex-ext	R_shoulder_adb-add	R_shoulder_LAR	R_elbow_flex-ext	R_forearm_pron-sup	R_wrist_flex-ext	R_MCP_flex-ext
      0.15100000	      0.00000000	      0.00000000	    -14.14749650	      0.20173243	      0.13648719	      0.08473696	      0.00000000	      0.00000000	      0.00000000	    -67.49998635	     49.99999299	      0.00000000	      0.00000000	     15.02982709	     11.10430806	      2.34793992	    -82.85598440	    135.67787760	    -88.26197477	     17.01997516
      0.15110000	      0.00000000	      0.00000000	    -14.16425858	      0.20182645	      0.13645383	      0.08473627	      0.00000000	      0.00000000	      0.00000000	    -67.49998635	     49.99999299	      0.00000000	      0.00000000	     15.02646633	     11.14809156	      2.41749502	    -82.93867272	    135.68208528	    -88.66072653	     16.29539928
      0.15120000	      0.00000000	      0.00000000	    -14.19303522	      0.20193819	      0.13641671	      0.08474943	      0.00000000	      0.00000000	      0.00000000	    -67.49998635	     49.99999299	      0.00000000	      0.00000000	     14.98956995	     11.19294318	      2.51249377	    -82.93274180	    135.69023967	    -88.29327221	     16.89225348
      0.15130000	      0.00000000	      0.00000000	    -14.20993821	      0.20205343	      0.13640585	      0.08476653	      0.00000000	      0.00000000	      0.00000000	    -67.49998635	     49.99999299	      0.00000000	      0.00000000	     15.02712595	     11.14338300	      2.53639771	    -82.87081993	    135.69351129	    -88.68246036	     16.44636414
      0.15140000	      0.00000000	      0.00000000	    -14.20523792	      0.20216329	      0.13640585	      0.08478345	      0.00000000	      0.00000000	      0.00000000	    -67.49998635	     49.99999299	      0.00000000	      0.00000000	     15.03230906	     11.13749607	      2.62158165	    -82.82114954	    135.62973587	    -88.69311528	     16.52544394
      0.15150000	      0.00000000	      0.00000000	    -14.18731796	      0.20227898	      0.13638849	      0.08480314	      0.00000000	      0.00000000	      0.00000000	    -67.49998635	     49.99999299	      0.00000000	      0.00000000	     15.10496017	     11.12874459	      2.67555837	    -82.79134070	    135.65046204	    -88.70917966	     16.59803496
      0.15160000	      0.00000000	      0.00000000	    -14.26271573	      0.20239769	      0.13633705	      0.08480716	      0.00000000	      0.00000000	      0.00000000	    -67.49998635	     49.99999299	      0.00000000	      0.00000000	     15.09080955	     11.15330556	      2.65355304	    -82.78147678	    135.79312246	    -88.59623900	     16.77644330
      0.15170000	      0.00000000	      0.00000000	    -14.36007877	      0.20251372	      0.13628548	      0.08481145	      0.00000000	      0.00000000	      0.00000000	    -67.49998635	     49.99999299	      0.00000000	      0.00000000	     14.99260212	     11.15151187	      2.69626425	    -82.73468677	    135.84581876	    -88.66710028	     16.72295558
      0.15180000	      0.00000000	      0.00000000	    -14.34919773	      0.20262902	      0.13628078	      0.08483450	      0.00000000	      0.00000000	      0.00000000	    -67.49998635	     49.99999299	      0.00000000	      0.00000000	     15.01522630	     11.15003342	      2.78709568	    -82.70356893	    135.77939917	    -88.69061012	     16.79909334
      0.15190000	      0.00000000	      0.00000000	    -14.34659433	      0.20273915	      0.13626257	      0.08485627	      0.00000000	      0.00000000	      0.00000000	    -67.49998635	     49.99999299	      0.00000000	      0.00000000	     15.07879387	     11.13690239	      2.80081539	    -82.65157659	    135.88009711	    -88.68598182	     16.84018226
      0.15200000	      0.00000000	      0.00000000	    -14.43768137	      0.20286116	      0.13622818	      0.08488477	      0.00000000	      0.00000000	      0.00000000	    -67.49998635	     49.99999299	      0.00000000	      0.00000000	     14.95390686	     11.11315694	      2.91392445	    -82.55755610	    135.90388968	    -88.74665536	     16.90942873
      0.15210000	      0.00000000	      0.00000000	    -14.38555540	      0.20297406	      0.13621292	      0.08487739	      0.00000000	      0.00000000	      0.00000000	    -67.49998635	     49.99999299	      0.00000000	      0.00000000	     15.09485925	     11.15066346	      2.90892621	    -82.62608981	    135.87070349	    -88.68559391	     16.97364499
      0.15220000	      0.00000000	      0.00000000	    -14.45437546	      0.20309343	      0.13618318	      0.08488795	      0.00000000	      0.00000000	      0.00000000	    -67.49998635	     49.99999299	      0.00000000	      0.00000000	     15.03422004	     11.14769440	      2.96036857	    -82.58318053	    135.88367767	    -88.68975330	     17.07742994
      0.15230000	      0.00000000	      0.00000000	    -14.46632650	      0.20322640	      0.13614534	      0.08490320	      0.00000000	      0.00000000	      0.00000000	    -67.49998635	     49.99999299	      0.00000000	      0.00000000	     15.08310069	     11.15970348	      3.00191960	    -82.61075231	    135.91015829	    -88.58991203	     17.28761284
      0.15240000	      0.00000000	      0.00000000	    -14.49770982	      0.20332636	      0.13613914	      0.08491300	      0.00000000	      0.00000000	      0.00000000	    -67.49998635	     49.99999299	      0.00000000	      0.00000000	     15.06693121	     11.16498040	      3.01382609	    -82.56711945	    135.91806699	    -88.54836813	     17.35257627
      0.15250000	      0.00000000	      0.00000000	    -14.41272961	      0.20342840	      0.13619030	      0.08498049	      0.00000000	      0.00000000	      0.00000000	    -67.49998635	     49.99999299	      0.00000000	      0.00000000	     15.12604093	     11.17731329	      3.13244055	    -82.54927641	    135.33709883	    -86.32201828	     21.38580308
      0.15260000	      0.00000000	      0.00000000	    -14.55792014	      0.20356127	      0.13609341	      0.08492892	      0.00000000	      0.00000000	      0.00000000	    -67.49998635	     49.99999299	      0.00000000	      0.00000000	     15.05203918	     11.17758910	      3.12017880	    -82.54195687	    135.90100130	    -88.55193195	     17.48462865
      0.15270000	      0.00000000	      0.00000000	    -14.45140561	      0.20368573	      0.13612498	      0.08500202	      0.00000000	      0.00000000	      0.00000000	    -67.49998635	     49.99999299	      0.00000000	      0.00000000	     15.28616892	     11.21603328	      3.04783926	    -82.56911808	    135.58204810	    -86.20130061	     21.33978766
      0.15280000	      0.00000000	      0.00000000	    -14.63445151	      0.20378889	      0.13602768	      0.08494200	      0.00000000	      0.00000000	      0.00000000	    -67.49998635	     49.99999299	      0.00000000	      0.00000000	     15.05430581	     11.20042890	      3.15988071	    -82.54693304	    135.95432044	    -88.42379864	     17.70033055
      0.15290000	      0.00000000	      0.00000000	    -14.65962747	      0.20391324	      0.13602767	      0.08495962	      0.00000000	      0.00000000	      0.00000000	    -67.49998635	     49.99999299	      0.00000000	      0.00000000	     14.98634774	     11.18658341	      3.32461710	    -82.50569102	    135.79950084	    -88.47153745	     17.84545654
      0.15300000	      0.00000000	      0.00000000	    -14.67683984	      0.20402580	      0.13599747	      0.08497094	      0.00000000	      0.00000000	      0.00000000	    -67.49998635	     49.99999299	      0.00000000	      0.00000000	     15.02526756	     11.19193299	      3.31009214	    -82.48977038	    135.88631176	    -88.46548209	     17.88778913
      0.15310000	      0.00000000	      0.00000000	    -14.70000290	      0.20414316	      0.13597955	      0.08497654	      0.00000000	      0.00000000	      0.00000000	    -67.49998635	     49.99999299	      0.00000000	      0.00000000	     15.01535651	     11.19468050	      3.38923740	    -82.47645979	    135.83230081	    -88.47223208	     18.01057468
      0.15320000	      0.00000000	      0.00000000	    -14.74551893	      0.20426049	      0.13594193	      0.08499235	      0.00000000	      0.00000000	      0.00000000	    -67.49998635	     49.99999299	      0.00000000	      0.00000000	     15.00356319	     11.20456932	      3.40836987	    -82.46612206	    135.88252970	    -88.45252707	     18.07567022
      0.15330000	      0.00000000	      0.00000000	    -14.73582653	      0.20439611	      0.13595375	      0.08501319	      0.00000000	      0.00000000	      0.00000000	    -67.49998635	     49.99999299	      0.00000000	      0.00000000	     15.05715472	     11.22994916	      3.44672644	    -82.45323789	    135.69366015	    -87.49016616	     19.81779409
      0.15340000	      0.00000000	      0.00000000	    -14.78086439	      0.20449281	      0.13591247	      0.08500733	      0.00000000	      0.00000000	      0.00000000	    -67.49998635	     49.99999299	      0.00000000	      0.00000000	     15.04794916	     11.21948939	      3.44982722	    -82.41383328	    135.92362170	    -88.25817761	     18.44728487
